<?xml version="1.0" encoding="utf-8"?>
<!-- Generator: Adobe Illustrator 16.0.0, SVG Export Plug-In . SVG Version: 6.00 Build 0)  -->
<!DOCTYPE svg PUBLIC "-//W3C//DTD SVG 1.1//EN" "http://www.w3.org/Graphics/SVG/1.1/DTD/svg11.dtd">
<svg version="1.1" xmlns="http://www.w3.org/2000/svg" xmlns:xlink="http://www.w3.org/1999/xlink" x="0px" y="0px"
	 width="751.181px" height="226.771px" viewBox="0 0 751.181 226.771" enable-background="new 0 0 751.181 226.771"
	 xml:space="preserve">
<g id="Layer_1">
	<g>
		<g>
			<path fill="#FFFFFF" d="M388.597,207.058c0.831-5.159,1.252-10.38,1.252-15.518c0-53.512-43.536-97.047-97.048-97.047
				c-5.192,0-10.512,0.437-15.812,1.298c-0.28,0.045-0.554,0.031-0.821-0.009c-0.583,4.362-0.89,8.813-0.89,13.334
				c0,55.063,44.642,99.701,99.706,99.701c4.622,0,9.168-0.321,13.622-0.931C388.565,207.618,388.551,207.341,388.597,207.058z"/>
			<path fill="#FFFFFF" d="M292.801,89.185c14.703,0,28.688,3.122,41.337,8.729c4.981-18.239,21.653-31.158,40.846-31.158
				c19.198,0,35.869,12.924,40.844,31.171c12.848-5.68,26.894-8.741,41.341-8.741c5.18,0,10.476,0.426,15.758,1.237
				c-8.751-46.125-49.271-81.011-97.942-81.011c-48.674,0-89.196,34.886-97.948,81.012C282.319,89.61,287.619,89.185,292.801,89.185
				z"/>
			<path fill="#FFFFFF" d="M374.985,72.063c-17.107,0-31.926,11.733-35.965,28.166c14.206,7.22,26.512,17.657,35.952,30.348
				c9.605-12.933,21.973-23.239,35.976-30.335C406.914,83.801,392.098,72.063,374.985,72.063z"/>
			<path fill="#FFFFFF" d="M472.982,95.791c-5.302-0.861-10.621-1.298-15.813-1.298c-30.221,0-58.607,14.096-76.947,37.945h91.038
				c0.227,0,0.443,0.037,0.653,0.091c1.808-7.51,2.771-15.349,2.771-23.413c0-4.521-0.307-8.971-0.89-13.332
				C473.532,95.823,473.26,95.835,472.982,95.791z"/>
			<path fill="#FFFFFF" d="M379.844,137.747c9.702,15.641,15.313,34.072,15.313,53.793c0,5.122-0.41,10.318-1.192,15.465
				c36.562-7.049,66.006-34.066,76.54-69.258H379.844z"/>
		</g>
		<path fill="#FFFFFF" d="M71.167,167.231H52.317c-15.339-19.201-22.13-37.486-22.13-37.486
			c-5.443,10.416-9.287,20.828-10.568,37.486H4.563V55.114h30.752c17.938,0,28.71,7.521,28.827,23.539
			c0.143,18.199-18.958,28.311-24.293,37.861C39.848,116.515,54.492,149.313,71.167,167.231z M48.128,76.894
			c0-13.451-8.167-18.738-20.818-18.738h-7.691v87.934C27.944,116.3,48.128,99.956,48.128,76.894z"/>
		<path fill="#FFFFFF" d="M139.911,164.187v3.045H85.93V55.114h52.059v3.041h-37.003v51.574h16.499v2.883h-16.499v51.574H139.911z"
			/>
		<path fill="#FFFFFF" d="M182.838,55.114l30.114,112.117h-15.223l-5.125-19.377c-5.443,13.932-16.975,20.82-27.548,20.82
			c-11.85,0-22.42-8.328-22.42-25.15c0-25.625,16.819-65.35,25.147-88.41H182.838z M174.668,158.421
			c7.05,0,14.095-5.283,16.819-14.736l-22.426-83.609c-5.284,16.336-12.655,47.412-12.49,70
			C156.726,149.772,165.696,158.421,174.668,158.421z"/>
		<path fill="#FFFFFF" d="M236.66,164.187h38.922v3.045h-53.983V55.114h15.062V164.187z"/>
		<g>
			<path fill="#FFFFFF" d="M571.04,167.231h-18.851c-15.34-19.201-22.131-37.486-22.131-37.486
				c-5.445,10.416-9.292,20.828-10.567,37.486h-15.059V55.114h30.755c17.938,0,28.708,7.521,28.833,23.539
				c0.14,18.199-18.964,28.311-24.3,37.861C539.72,116.515,554.361,149.313,571.04,167.231z M548,76.894
				c0-13.451-8.174-18.738-20.825-18.738h-7.685v87.934C527.816,116.3,548,99.956,548,76.894z"/>
			<g>
				<g>
					<path fill="#FFFFFF" d="M583.862,167.231V55.114h15.056v112.117H583.862z"/>
					<path fill="#FFFFFF" d="M681.422,141.925c0,16.496-16.978,26.266-36.841,26.266c-9.286,0-19.22-2.08-28.51-6.568v-25.467h3.048
						c0,16.18,13.291,28.994,26.745,28.994c12.012,0,19.7-8.648,19.541-17.941c-0.161-26.906-52.217-33.793-52.217-67.268
						c0-17.779,15.858-25.789,33.479-25.789c8.969,0,18.576,2.078,26.749,6.088V85.7h-3.048c0-16.176-9.286-28.508-22.74-28.508
						c-10.091,0-18.262,8.168-18.262,20.021C629.368,101.558,681.422,113.575,681.422,141.925z"/>
					<path fill="#FFFFFF" d="M746.618,164.187v3.045h-53.98V55.114h52.054v3.041h-36.998v51.574h16.499v2.883h-16.499v51.574
						H746.618z"/>
				</g>
			</g>
		</g>
		<g>
			<path fill="#010101" d="M465.45,52.247c0.442-0.342,0.934-0.59,1.439-0.74c0.418-0.125,0.849-0.186,1.281-0.186
				c0.61-0.037,1.248,0.186,2.56,0.109c0.204-0.006,0.391-0.027,0.567-0.049c0.388-0.051,0.711-0.121,0.958-0.195h0.013
				c0.061-0.016,0.112-0.031,0.161-0.049c0.104-0.031,0.184-0.063,0.241-0.084c0.013-0.002,0.021-0.004,0.024-0.012
				c0.016,0,0.019-0.006,0.03-0.008c0.052-0.021,0.076-0.033,0.076-0.033c0.324-0.15,0.626-0.35,0.895-0.611
				c0.024-0.025,0.046-0.047,0.066-0.07c0.293-0.295,0.513-0.635,0.666-0.996c0.128-0.301,0.201-0.613,0.229-0.932
				c0,0,0.006-0.01,0.006-0.018c0.058-0.564,0.168-0.955,0.201-1.066c0-0.006,0-0.016,0-0.016c0.006-0.02,0.013-0.039,0.019-0.061
				c0-0.014,0.006-0.035,0.006-0.049c0.098-0.482,0.424-0.695,0.424-0.695c-0.481-0.404-0.948-0.404-1.278-0.313
				c-0.155,0.043-0.277,0.102-0.356,0.146c-0.006,0.006-0.016,0.012-0.021,0.012c-0.049,0.035-0.082,0.059-0.082,0.059
				c-0.027,0.02-0.056,0.043-0.076,0.061c-0.056,0.063-0.11,0.125-0.146,0.195c0,0-0.013,0.02-0.024,0.053
				c-0.04,0.068-0.113,0.201-0.152,0.236c-0.007,0.008-0.01,0.016-0.021,0.02c-0.192,0.186-0.467,0.234-0.702,0.156
				c0,0,0-0.002-0.006-0.006l0,0c-0.04-0.012-0.079-0.029-0.11-0.049c0,0,0,0-0.003-0.004c-0.247-0.109-0.5-0.191-0.76-0.246l0,0
				c-1.104-0.248-2.297-0.004-3.239,0.715c-0.119,0.092-0.229,0.189-0.339,0.291c-0.119,0.121-0.229,0.244-0.339,0.373
				c0.208-0.049,0.418-0.086,0.626-0.098c0.069-0.008,0.137-0.014,0.204-0.014c0,0,0.003,0,0.012,0c0.024,0,0.083,0,0.165,0
				c0.323,0,1.01,0.025,1.482,0.209c0.021,0.01,0.04,0.02,0.056,0.023c0.149,0.053,0.283,0.141,0.402,0.262
				c0.033,0.037,0.067,0.074,0.095,0.109c0.312,0.426,0.271,1.023-0.119,1.406c-0.024,0.021-0.043,0.043-0.073,0.063
				c-0.128,0.107-0.283,0.178-0.439,0.215c-0.082,0.033-0.351,0.086-0.68,0.139c-0.425,0.07-0.934,0.15-1.248,0.207
				c-0.021,0-0.034,0.004-0.055,0.01c-0.037,0.002-0.07,0.008-0.098,0.016h-0.01c-0.391,0.078-0.784,0.213-1.15,0.404
				c-0.375,0.193-0.729,0.443-1.04,0.746C465.666,52.001,465.553,52.124,465.45,52.247z"/>
			<path fill="#010101" d="M447.27,60.37c0.519-0.395,1.089-0.689,1.684-0.861c0.488-0.145,0.991-0.217,1.498-0.215
				c0.717-0.049,1.461,0.215,2.999,0.125c0.238-0.008,0.454-0.029,0.662-0.055c0.457-0.063,0.833-0.145,1.126-0.225
				c0,0,0.003-0.006,0.009-0.006c0.07-0.021,0.131-0.035,0.189-0.057c0.118-0.039,0.216-0.076,0.283-0.1
				c0.013-0.004,0.021-0.012,0.03-0.014c0.016-0.006,0.024-0.006,0.034-0.01c0.055-0.029,0.088-0.045,0.088-0.045
				c0.385-0.168,0.732-0.406,1.05-0.715c0.027-0.021,0.052-0.047,0.082-0.076c0.339-0.35,0.599-0.74,0.772-1.166
				c0.144-0.352,0.234-0.717,0.271-1.088v-0.025c0.073-0.662,0.201-1.115,0.237-1.248c0.004-0.01,0.004-0.016,0.004-0.021
				c0.012-0.023,0.015-0.043,0.021-0.068c0.004-0.021,0.004-0.039,0.013-0.055c0.106-0.564,0.485-0.82,0.485-0.82
				c-0.559-0.469-1.107-0.465-1.486-0.359c-0.18,0.047-0.332,0.119-0.427,0.176c0,0-0.01,0.002-0.019,0.012
				c-0.061,0.037-0.098,0.063-0.098,0.063c-0.033,0.023-0.061,0.051-0.091,0.074c-0.07,0.07-0.129,0.15-0.175,0.229
				c0,0-0.012,0.021-0.027,0.059c-0.049,0.08-0.125,0.229-0.18,0.277c-0.003,0.012-0.013,0.016-0.019,0.023
				c-0.226,0.219-0.546,0.275-0.823,0.18h-0.003h-0.01c-0.039-0.018-0.088-0.037-0.125-0.066h-0.003
				c-0.29-0.125-0.586-0.223-0.888-0.291l0,0c-1.297-0.283-2.688-0.006-3.792,0.846c-0.138,0.102-0.274,0.215-0.396,0.34
				c-0.141,0.135-0.271,0.281-0.396,0.432c0.243-0.063,0.484-0.098,0.731-0.121c0.08-0.004,0.159-0.008,0.238-0.012h0.016
				c0.027,0,0.094-0.002,0.195,0c0.372,0.004,1.174,0.039,1.732,0.252c0.024,0.008,0.046,0.018,0.067,0.025
				c0.171,0.063,0.332,0.166,0.476,0.305c0.037,0.043,0.073,0.09,0.101,0.131c0.369,0.498,0.32,1.201-0.137,1.643
				c-0.028,0.025-0.049,0.053-0.08,0.076c-0.161,0.129-0.332,0.209-0.521,0.248c-0.095,0.041-0.415,0.104-0.799,0.17
				c-0.494,0.078-1.093,0.17-1.455,0.234c-0.021,0.004-0.046,0.006-0.064,0.012c-0.043,0.006-0.082,0.016-0.113,0.018
				c0,0-0.006,0-0.015,0.006c-0.458,0.092-0.915,0.25-1.349,0.473c-0.434,0.225-0.842,0.52-1.214,0.877
				C447.517,60.087,447.392,60.229,447.27,60.37z"/>
			<path fill="#010101" d="M480.014,36.624c0.473-0.367,0.994-0.631,1.543-0.795c0.442-0.131,0.906-0.197,1.367-0.197
				c0.652-0.039,1.336,0.197,2.739,0.117c0.214-0.01,0.415-0.025,0.604-0.051c0.418-0.055,0.766-0.131,1.027-0.205h0.013
				c0.058-0.02,0.119-0.039,0.168-0.055c0.112-0.033,0.201-0.066,0.262-0.094c0.016-0.002,0.019-0.01,0.028-0.01
				c0.012-0.004,0.021-0.006,0.03-0.008c0.055-0.023,0.082-0.041,0.082-0.041c0.342-0.158,0.668-0.375,0.958-0.652
				c0.024-0.025,0.052-0.049,0.07-0.072c0.312-0.314,0.549-0.676,0.708-1.07c0.137-0.314,0.216-0.652,0.256-0.988
				c0-0.008,0-0.014,0-0.023c0.058-0.602,0.177-1.023,0.214-1.141c0-0.01,0.003-0.016,0.003-0.018
				c0.006-0.021,0.012-0.045,0.016-0.063c0-0.016,0.006-0.033,0.012-0.059c0.098-0.512,0.445-0.74,0.445-0.74
				c-0.513-0.432-1.01-0.432-1.36-0.334c-0.165,0.043-0.302,0.111-0.388,0.16c-0.003,0.008-0.012,0.008-0.019,0.012
				c-0.063,0.037-0.091,0.059-0.091,0.059c-0.028,0.023-0.056,0.047-0.08,0.068c-0.063,0.066-0.115,0.137-0.158,0.207
				c0,0-0.009,0.021-0.027,0.055c-0.043,0.078-0.119,0.217-0.162,0.25c-0.006,0.014-0.012,0.023-0.021,0.029
				c-0.207,0.195-0.497,0.248-0.753,0.162l0,0c-0.003,0-0.003,0-0.003,0c-0.046-0.018-0.086-0.035-0.122-0.063l0,0
				c-0.266-0.119-0.534-0.201-0.812-0.266l0,0c-1.181-0.26-2.462-0.008-3.469,0.771c-0.122,0.094-0.244,0.203-0.363,0.311
				c-0.128,0.127-0.244,0.26-0.36,0.395c0.227-0.053,0.442-0.088,0.672-0.107c0.073-0.006,0.143-0.01,0.213-0.01
				c0,0,0.007,0,0.013,0c0.03,0,0.091-0.006,0.183,0c0.342,0,1.071,0.029,1.584,0.227c0.021,0.006,0.039,0.018,0.058,0.023
				c0.161,0.057,0.308,0.154,0.434,0.283c0.036,0.037,0.066,0.076,0.101,0.115c0.335,0.457,0.293,1.104-0.129,1.504
				c-0.024,0.025-0.049,0.045-0.073,0.068c-0.143,0.111-0.302,0.189-0.476,0.229c-0.085,0.035-0.378,0.094-0.726,0.152
				c-0.452,0.072-1.001,0.158-1.334,0.213c-0.024,0.006-0.042,0.006-0.063,0.01c-0.037,0.01-0.067,0.012-0.101,0.018l-0.007,0.002
				c-0.427,0.09-0.842,0.229-1.235,0.438c-0.399,0.203-0.771,0.471-1.11,0.801C480.246,36.36,480.124,36.483,480.014,36.624z"/>
			<path fill="#010101" d="M450.696,44.604c0.503-0.238,1.04-0.369,1.58-0.4c0.439-0.027,0.876,0.012,1.3,0.109
				c0.607,0.1,1.184,0.467,2.492,0.691c0.202,0.039,0.382,0.063,0.564,0.082c0.394,0.039,0.732,0.041,0.985,0.027h0.01
				c0.063,0,0.122-0.004,0.174-0.01c0.106-0.008,0.198-0.018,0.259-0.033c0.013,0,0.021,0,0.027,0
				c0.01-0.004,0.016-0.004,0.031-0.004c0.052-0.012,0.082-0.016,0.082-0.016c0.351-0.07,0.692-0.201,1.019-0.395
				c0.027-0.018,0.059-0.035,0.083-0.051c0.351-0.227,0.646-0.51,0.875-0.83c0.192-0.264,0.339-0.557,0.445-0.861
				c0-0.006,0-0.012,0.007-0.021c0.183-0.539,0.378-0.896,0.436-0.998c0.01-0.008,0.01-0.014,0.016-0.02
				c0.006-0.016,0.012-0.033,0.027-0.049c0.006-0.018,0.01-0.035,0.013-0.047c0.21-0.455,0.573-0.594,0.573-0.594
				c-0.385-0.502-0.839-0.607-1.178-0.594c-0.168,0.006-0.302,0.035-0.391,0.064c-0.009,0-0.012,0.006-0.012,0.006
				c-0.07,0.021-0.104,0.035-0.104,0.035c-0.034,0.016-0.062,0.029-0.089,0.049c-0.07,0.041-0.138,0.092-0.192,0.152
				c0,0-0.009,0.021-0.033,0.043c-0.055,0.061-0.159,0.174-0.205,0.203c-0.009,0.006-0.015,0.01-0.024,0.016
				c-0.231,0.137-0.512,0.127-0.723-0.01c0,0,0,0-0.006,0l-0.006-0.006c-0.034-0.021-0.062-0.045-0.089-0.07v-0.008
				c-0.22-0.168-0.451-0.303-0.692-0.416l0,0c-1.031-0.496-2.261-0.529-3.347-0.037c-0.135,0.061-0.274,0.133-0.403,0.211
				c-0.146,0.088-0.28,0.18-0.411,0.285c0.213,0,0.427,0.014,0.631,0.045c0.07,0.01,0.138,0.023,0.205,0.031
				c0,0,0.003,0,0.009,0.008c0.03,0.004,0.082,0.02,0.171,0.041c0.312,0.074,0.979,0.254,1.403,0.543
				c0.019,0.014,0.036,0.025,0.052,0.039c0.131,0.084,0.247,0.201,0.336,0.352c0.024,0.035,0.046,0.08,0.063,0.123
				c0.211,0.488,0.031,1.074-0.433,1.355c-0.031,0.018-0.055,0.033-0.086,0.041c-0.155,0.08-0.326,0.115-0.488,0.109
				c-0.082,0.02-0.365,0.006-0.698-0.014c-0.434-0.027-0.952-0.068-1.27-0.086c-0.015-0.004-0.039-0.004-0.063-0.004
				c-0.033-0.002-0.064-0.006-0.095-0.006h-0.006c-0.412-0.008-0.821,0.035-1.227,0.137c-0.415,0.107-0.812,0.271-1.196,0.5
				C450.958,44.409,450.821,44.501,450.696,44.604z"/>
		</g>
		<g>
			<g>
				<path fill="#FFFFFF" d="M13.935,35.683v-9.438c0-0.283-0.058-0.553-0.214-0.795L4.563,9.31h5.607
					c2.166,4.084,5.217,9.896,6.495,12.568c1.144-2.59,4.384-8.592,6.55-12.568h5.205l-9.338,16.105
					c-0.107,0.174-0.195,0.305-0.195,0.781v9.486H13.935z"/>
				<path fill="#FFFFFF" d="M55.846,22.388c0,7.313-4.292,13.68-12.771,13.68c-8.103,0-12.432-6.01-12.432-13.57
					c0-7.629,4.659-13.564,12.78-13.564C51.042,8.933,55.846,14.396,55.846,22.388z M35.766,22.382c0,5.336,2.483,9.617,7.508,9.617
					c5.433,0,7.444-4.521,7.444-9.545c0-5.229-2.285-9.451-7.505-9.451C38.033,13.003,35.766,17.079,35.766,22.382z"/>
				<path fill="#FFFFFF" d="M65.587,28.089c0.644,2.824,2.63,4.172,5.946,4.172c3.411,0,4.826-1.449,4.826-3.576
					c0-2.314-1.281-3.436-6.059-4.563c-6.846-1.625-8.753-4.07-8.753-7.682c0-4.363,3.249-7.508,9.369-7.508
					c6.757,0,9.479,3.715,9.851,7.443h-5c-0.345-1.881-1.434-3.699-4.988-3.699c-2.626,0-4.161,1.121-4.161,3.225
					c0,2.051,1.251,2.871,5.635,3.904c7.618,1.818,9.183,4.695,9.183,8.299c0,4.625-3.478,7.941-10.275,7.941
					c-6.672,0-9.963-3.41-10.571-7.957H65.587z"/>
				<path fill="#FFFFFF" d="M87.51,9.31h4.942v10.537h11.69V9.31h4.942v26.373h-4.942V23.948h-11.69v11.734H87.51V9.31z"/>
				<path fill="#FFFFFF" d="M122.207,9.31v26.373h-4.952V9.31H122.207z"/>
				<path fill="#FFFFFF" d="M135.865,13.409h-8.182v-4.1h21.315v4.1h-8.173v22.273h-4.96V13.409z"/>
				<path fill="#FFFFFF" d="M154.146,9.31h4.948v10.537h11.681V9.31h4.952v26.373h-4.952V23.948h-11.681v11.734h-4.948V9.31z"/>
				<path fill="#FFFFFF" d="M188.311,28.968l-2.331,6.715h-4.875l9.104-26.373h6.184l9.506,26.373h-5.223l-2.425-6.715H188.311z
					 M197.137,24.872c-2.099-6.035-3.356-9.639-3.969-11.881h-0.04c-0.647,2.475-2.041,6.717-3.725,11.881H197.137z"/>
				<path fill="#FFFFFF" d="M207.042,18.679c1.056-3.547,1.715-8.027,1.797-10.885h4.96c-0.271,3.5-1.449,8.018-2.917,10.885
					H207.042z"/>
				<path fill="#FFFFFF" d="M222.437,28.089c0.646,2.824,2.636,4.172,5.949,4.172c3.414,0,4.83-1.449,4.83-3.576
					c0-2.314-1.281-3.436-6.056-4.563c-6.849-1.625-8.759-4.07-8.759-7.682c0-4.363,3.252-7.508,9.372-7.508
					c6.757,0,9.479,3.715,9.848,7.443h-4.994c-0.345-1.881-1.443-3.699-4.997-3.699c-2.618,0-4.149,1.121-4.149,3.225
					c0,2.051,1.242,2.871,5.631,3.904c7.615,1.818,9.18,4.695,9.18,8.299c0,4.625-3.478,7.941-10.275,7.941
					c-6.669,0-9.97-3.41-10.568-7.957H222.437z"/>
			</g>
		</g>
		<g>
			<path fill="#FFFFFF" d="M512.181,210.642c0.677,0,1.352-0.07,2.02-0.213c0.668-0.141,1.26-0.377,1.791-0.705
				c0.524-0.326,0.948-0.762,1.278-1.299c0.326-0.535,0.491-1.195,0.491-1.98c0-0.551-0.104-1.027-0.312-1.43
				c-0.207-0.406-0.488-0.768-0.854-1.082c-0.359-0.318-0.787-0.613-1.278-0.887c-0.491-0.271-1.034-0.563-1.623-0.869
				c-0.503-0.264-1.013-0.547-1.528-0.852c-0.513-0.311-0.973-0.686-1.379-1.135c-0.405-0.449-0.732-0.977-0.985-1.59
				c-0.25-0.613-0.375-1.346-0.375-2.201c0-0.984,0.192-1.891,0.57-2.725c0.385-0.828,0.952-1.545,1.696-2.146
				c0.741-0.6,1.659-1.064,2.739-1.393c1.08-0.33,2.322-0.498,3.723-0.498c0.655,0,1.281,0.051,1.873,0.148
				c0.592,0.1,1.132,0.227,1.626,0.387c0.485,0.15,0.918,0.303,1.293,0.471c0.369,0.164,0.645,0.313,0.815,0.443l-1.474,2.492
				c-0.372-0.305-0.971-0.586-1.785-0.84c-0.82-0.25-1.791-0.375-2.907-0.375c-0.702,0-1.349,0.07-1.949,0.215
				c-0.602,0.139-1.126,0.361-1.563,0.67c-0.436,0.309-0.787,0.695-1.049,1.168c-0.26,0.469-0.394,1.031-0.394,1.686
				c0,0.57,0.085,1.047,0.265,1.43c0.174,0.387,0.415,0.723,0.724,1.018c0.302,0.293,0.68,0.564,1.129,0.805
				c0.448,0.244,0.934,0.492,1.458,0.754c0.656,0.328,1.275,0.658,1.854,0.998c0.577,0.342,1.09,0.738,1.528,1.199
				c0.437,0.463,0.781,0.994,1.031,1.609c0.254,0.613,0.382,1.355,0.382,2.23c0,1.203-0.238,2.26-0.708,3.164
				c-0.47,0.912-1.113,1.664-1.938,2.266c-0.82,0.602-1.794,1.057-2.922,1.361c-1.126,0.309-2.344,0.461-3.658,0.461
				c-0.876,0-1.666-0.061-2.38-0.182c-0.708-0.121-1.33-0.27-1.87-0.439c-0.534-0.178-0.988-0.357-1.36-0.545
				s-0.656-0.354-0.852-0.508l1.479-2.592c0.412,0.285,1.071,0.609,1.965,0.971C509.665,210.462,510.805,210.642,512.181,210.642z"
				/>
			<path fill="#FFFFFF" d="M529.412,213.364c-1.642,0-2.85-0.363-3.612-1.084c-0.763-0.717-1.149-1.771-1.149-3.148
				c0-0.9,0.155-2.043,0.463-3.445l3.512-14.6l3.179-0.527l-1.274,5.285h5.809l-0.629,2.559h-5.812l-1.8,7.549
				c-0.263,1.025-0.396,1.922-0.396,2.689c0,0.723,0.201,1.24,0.592,1.557c0.396,0.318,1.052,0.477,1.971,0.477
				c0.638,0,1.26-0.104,1.867-0.311c0.616-0.211,1.086-0.4,1.415-0.572l0.226,2.59c-0.326,0.199-0.888,0.41-1.668,0.639
				C531.312,213.251,530.416,213.364,529.412,213.364z"/>
			<path fill="#FFFFFF" d="M543.488,213.335c-1.116,0-2.08-0.16-2.889-0.48c-0.814-0.316-1.492-0.752-2.032-1.313
				c-0.549-0.555-0.951-1.209-1.217-1.951c-0.263-0.74-0.394-1.529-0.394-2.361c0-1.533,0.231-3.01,0.689-4.428
				c0.461-1.42,1.113-2.682,1.968-3.779c0.857-1.092,1.892-1.961,3.118-2.604c1.226-0.648,2.614-0.971,4.17-0.971
				c0.896,0,1.663,0.115,2.31,0.344s1.175,0.543,1.577,0.938c0.402,0.393,0.701,0.846,0.903,1.363
				c0.198,0.512,0.296,1.041,0.296,1.586c0,1.033-0.189,1.9-0.562,2.613c-0.369,0.709-0.866,1.309-1.474,1.787
				c-0.613,0.477-1.33,0.855-2.15,1.115c-0.818,0.264-1.672,0.471-2.557,0.623c-0.892,0.154-1.788,0.26-2.694,0.314
				c-0.909,0.059-1.767,0.104-2.574,0.148c-0.024,0.172-0.034,0.311-0.034,0.42c0,0.113,0,0.201,0,0.268
				c0,0.502,0.059,0.979,0.184,1.424c0.118,0.451,0.345,0.846,0.668,1.184c0.332,0.342,0.781,0.605,1.363,0.801
				c0.577,0.201,1.343,0.299,2.279,0.299c0.415,0,0.845-0.041,1.297-0.117c0.445-0.076,0.875-0.176,1.281-0.295
				c0.405-0.117,0.766-0.24,1.083-0.355c0.317-0.123,0.543-0.236,0.674-0.346l0.26,2.59c-0.437,0.242-1.139,0.496-2.114,0.77
				C545.941,213.196,544.8,213.335,543.488,213.335z M540.367,203.946c1.272-0.039,2.432-0.125,3.481-0.246
				c1.053-0.121,1.959-0.33,2.725-0.623c0.763-0.297,1.363-0.693,1.784-1.195c0.431-0.5,0.644-1.16,0.644-1.971
				c0-0.195-0.042-0.406-0.115-0.623c-0.08-0.221-0.211-0.42-0.397-0.607c-0.183-0.184-0.441-0.34-0.766-0.459
				c-0.329-0.123-0.735-0.182-1.217-0.182c-0.769,0-1.482,0.168-2.151,0.494c-0.668,0.328-1.26,0.76-1.787,1.297
				c-0.525,0.535-0.971,1.158-1.343,1.869C540.852,202.415,540.565,203.163,540.367,203.946z"/>
			<path fill="#FFFFFF" d="M563.108,195.415c1.07,0,1.998,0.152,2.77,0.459c0.778,0.311,1.419,0.727,1.925,1.264
				c0.501,0.535,0.879,1.172,1.129,1.906c0.251,0.73,0.374,1.533,0.374,2.41c0,1.512-0.225,2.971-0.685,4.379
				c-0.461,1.41-1.169,2.67-2.114,3.758c-0.952,1.094-2.16,1.973-3.609,2.623c-1.458,0.66-3.182,0.986-5.171,0.986
				c-0.238,0-0.504-0.012-0.787-0.033c-0.28-0.021-0.537-0.055-0.757-0.094l-1.409,5.904h-3.048l5.379-22.408
				c0.918-0.375,1.919-0.66,3.002-0.857C561.189,195.513,562.189,195.415,563.108,195.415z M556.808,210.509
				c0.216,0.049,0.454,0.07,0.704,0.084c0.25,0.012,0.497,0.014,0.741,0.014c1.245,0,2.361-0.238,3.347-0.719
				c0.979-0.479,1.818-1.131,2.508-1.957c0.692-0.822,1.221-1.756,1.593-2.816c0.372-1.064,0.562-2.172,0.562-3.33
				c0-0.484-0.058-0.957-0.168-1.412c-0.113-0.461-0.312-0.867-0.607-1.213c-0.299-0.354-0.692-0.629-1.195-0.842
				c-0.504-0.201-1.153-0.311-1.938-0.311c-0.546,0-1.053,0.047-1.513,0.146c-0.458,0.102-0.84,0.201-1.145,0.283L556.808,210.509z"
				/>
			<path fill="#FFFFFF" d="M581.711,212.903h-3.051l4.102-17.059h3.053L581.711,212.903z M585.256,192.759
				c-0.504,0-0.922-0.15-1.264-0.457c-0.338-0.307-0.509-0.736-0.509-1.279c0-0.699,0.217-1.256,0.654-1.66s0.932-0.605,1.478-0.605
				c0.504,0,0.931,0.154,1.285,0.475c0.345,0.314,0.52,0.762,0.52,1.328c0,0.656-0.23,1.189-0.688,1.59
				C586.272,192.558,585.781,192.759,585.256,192.759z"/>
			<path fill="#FFFFFF" d="M589.881,212.903h-3.051l3.933-16.406c1.01-0.303,2.097-0.551,3.267-0.738
				c1.172-0.184,2.222-0.277,3.14-0.277c0.978,0,1.827,0.135,2.538,0.41c0.714,0.275,1.288,0.643,1.724,1.115
				c0.434,0.471,0.763,1.035,0.968,1.709c0.21,0.668,0.311,1.393,0.311,2.178c0,0.508-0.043,1.035-0.131,1.594
				c-0.086,0.559-0.192,1.125-0.326,1.691l-2.101,8.725h-3.053l1.938-8.066c0.152-0.617,0.302-1.236,0.445-1.871
				c0.141-0.637,0.214-1.236,0.214-1.807c0-0.875-0.241-1.602-0.727-2.186c-0.48-0.574-1.376-0.867-2.685-0.867
				c-0.557,0-1.089,0.031-1.61,0.102c-0.528,0.064-0.968,0.152-1.313,0.258L589.881,212.903z"/>
			<path fill="#FFFFFF" d="M610.747,213.364c-1.637,0-2.84-0.363-3.607-1.084c-0.763-0.717-1.15-1.771-1.15-3.148
				c0-0.9,0.156-2.043,0.461-3.445l3.515-14.6l3.185-0.527l-1.282,5.285h5.806l-0.621,2.559h-5.807l-1.805,7.549
				c-0.266,1.025-0.396,1.922-0.396,2.689c0,0.723,0.198,1.24,0.595,1.557c0.394,0.318,1.046,0.477,1.965,0.477
				c0.638,0,1.26-0.104,1.87-0.311c0.613-0.211,1.086-0.4,1.412-0.572l0.229,2.59c-0.327,0.199-0.888,0.41-1.668,0.639
				C612.652,213.251,611.758,213.364,610.747,213.364z"/>
			<path fill="#FFFFFF" d="M624.041,213.335c-1.794,0-3.2-0.531-4.216-1.598c-1.017-1.059-1.525-2.52-1.525-4.375
				c0-1.273,0.177-2.605,0.54-4.008c0.359-1.395,0.934-2.691,1.721-3.865c0.787-1.184,1.806-2.154,3.057-2.92
				c1.248-0.771,2.755-1.154,4.527-1.154c1.788,0,3.192,0.531,4.208,1.592c1.017,1.063,1.53,2.523,1.53,4.381
				c0,1.271-0.18,2.602-0.543,4.004c-0.358,1.396-0.934,2.691-1.721,3.869c-0.79,1.186-1.803,2.156-3.051,2.924
				C627.317,212.946,625.813,213.335,624.041,213.335z M624.565,210.737c0.979,0,1.864-0.279,2.643-0.85
				c0.777-0.572,1.431-1.295,1.968-2.184c0.537-0.885,0.944-1.865,1.228-2.936c0.284-1.068,0.426-2.109,0.426-3.121
				c0-1.113-0.241-2-0.72-2.656c-0.483-0.656-1.313-0.984-2.493-0.984c-0.986,0-1.863,0.285-2.639,0.855
				c-0.777,0.566-1.434,1.291-1.971,2.184c-0.537,0.883-0.948,1.863-1.229,2.936c-0.287,1.072-0.43,2.107-0.43,3.113
				c0,1.121,0.244,2.006,0.72,2.66C622.555,210.411,623.384,210.737,624.565,210.737z"/>
			<path fill="#FFFFFF" d="M643.461,212.903l5.446-22.73H662.2l-0.622,2.65h-10.143l-1.67,6.959h8.987l-0.621,2.59h-8.957
				l-2.53,10.531H643.461z"/>
			<path fill="#FFFFFF" d="M666.564,213.335c-0.963,0-1.77-0.146-2.412-0.432c-0.646-0.285-1.171-0.666-1.575-1.145
				c-0.407-0.484-0.694-1.051-0.868-1.707c-0.174-0.654-0.263-1.355-0.263-2.1c0-0.568,0.049-1.133,0.143-1.689
				c0.104-0.561,0.213-1.123,0.349-1.691l2.1-8.727h3.054l-1.936,8.07c-0.108,0.506-0.252,1.092-0.429,1.771
				c-0.174,0.678-0.26,1.357-0.26,2.033c0,0.396,0.037,0.773,0.113,1.135c0.076,0.359,0.215,0.678,0.427,0.951
				c0.204,0.273,0.486,0.488,0.836,0.656c0.348,0.164,0.787,0.246,1.312,0.246c0.94,0,1.77-0.203,2.478-0.605
				c0.709-0.406,1.303-0.885,1.791-1.426c0.019-0.355,0.052-0.711,0.09-1.086c0.047-0.371,0.125-0.777,0.239-1.213l2.523-10.533
				h3.051l-2.594,10.795c-0.106,0.502-0.201,0.992-0.274,1.457c-0.084,0.469-0.115,0.963-0.115,1.465
				c0,0.498,0.042,1.006,0.125,1.508c0.091,0.5,0.24,1.049,0.463,1.641l-2.693,0.389c-0.106-0.238-0.214-0.508-0.32-0.818
				c-0.117-0.305-0.204-0.633-0.266-0.986c-0.242,0.223-0.529,0.455-0.857,0.693c-0.324,0.24-0.701,0.457-1.129,0.652
				c-0.427,0.195-0.896,0.361-1.409,0.5C667.743,213.267,667.178,213.335,666.564,213.335z"/>
			<path fill="#FFFFFF" d="M684.214,213.364c-1.639,0-2.841-0.363-3.609-1.084c-0.766-0.717-1.144-1.771-1.144-3.148
				c0-0.9,0.147-2.043,0.457-3.445l3.515-14.6l3.179-0.527l-1.281,5.285h5.811l-0.629,2.559h-5.806l-1.801,7.549
				c-0.263,1.025-0.397,1.922-0.397,2.689c0,0.723,0.198,1.24,0.596,1.557c0.39,0.318,1.043,0.477,1.964,0.477
				c0.635,0,1.256-0.104,1.87-0.311c0.613-0.211,1.087-0.4,1.41-0.572l0.231,2.59c-0.329,0.199-0.888,0.41-1.672,0.639
				C686.117,213.251,685.221,213.364,684.214,213.364z"/>
			<path fill="#FFFFFF" d="M697.373,213.335c-0.962,0-1.764-0.146-2.41-0.432c-0.648-0.285-1.172-0.666-1.574-1.145
				c-0.406-0.484-0.696-1.051-0.871-1.707c-0.173-0.654-0.265-1.355-0.265-2.1c0-0.568,0.053-1.133,0.156-1.689
				c0.091-0.561,0.21-1.123,0.339-1.691l2.102-8.727h3.051l-1.938,8.07c-0.106,0.506-0.25,1.092-0.427,1.771
				c-0.179,0.678-0.266,1.357-0.266,2.033c0,0.396,0.043,0.773,0.119,1.135c0.076,0.359,0.22,0.678,0.424,0.951
				c0.211,0.273,0.488,0.488,0.836,0.656c0.357,0.164,0.793,0.246,1.318,0.246c0.937,0,1.763-0.203,2.477-0.605
				c0.708-0.406,1.306-0.885,1.783-1.426c0.026-0.355,0.054-0.711,0.103-1.086c0.04-0.371,0.119-0.777,0.229-1.213l2.526-10.533
				h3.051l-2.593,10.795c-0.108,0.502-0.202,0.992-0.278,1.457c-0.073,0.469-0.109,0.963-0.109,1.465
				c0,0.498,0.038,1.006,0.125,1.508c0.088,0.5,0.244,1.049,0.461,1.641l-2.691,0.389c-0.106-0.238-0.22-0.508-0.329-0.818
				c-0.106-0.305-0.192-0.633-0.26-0.986c-0.244,0.223-0.527,0.455-0.851,0.693c-0.333,0.24-0.71,0.457-1.135,0.652
				c-0.432,0.195-0.898,0.361-1.41,0.5C698.546,213.267,697.984,213.335,697.373,213.335z"/>
			<path fill="#FFFFFF" d="M718.965,195.481c0.263,0,0.559,0.012,0.885,0.031c0.329,0.025,0.646,0.063,0.967,0.117
				c0.317,0.057,0.61,0.111,0.87,0.162c0.266,0.055,0.457,0.117,0.59,0.184l-0.886,2.654c-0.441-0.17-0.943-0.303-1.509-0.391
				c-0.569-0.09-1.115-0.133-1.643-0.133c-0.458,0-0.912,0.031-1.358,0.102c-0.448,0.064-0.839,0.152-1.165,0.258l-3.48,14.438
				h-3.051l3.938-16.406c0.872-0.303,1.814-0.551,2.821-0.738C716.949,195.575,717.961,195.481,718.965,195.481z"/>
			<path fill="#FFFFFF" d="M728.542,213.335c-1.113,0-2.077-0.16-2.886-0.48c-0.807-0.316-1.485-0.752-2.03-1.313
				c-0.548-0.555-0.953-1.209-1.216-1.951c-0.266-0.74-0.396-1.529-0.396-2.361c0-1.533,0.231-3.01,0.689-4.428
				c0.459-1.42,1.116-2.682,1.977-3.779c0.852-1.092,1.886-1.961,3.112-2.604c1.224-0.648,2.614-0.971,4.167-0.971
				c0.895,0,1.666,0.115,2.313,0.344c0.644,0.229,1.173,0.543,1.577,0.938c0.4,0.393,0.702,0.846,0.897,1.363
				c0.201,0.512,0.302,1.041,0.302,1.586c0,1.033-0.189,1.9-0.564,2.613c-0.369,0.709-0.86,1.309-1.475,1.787
				c-0.612,0.477-1.326,0.855-2.146,1.115c-0.822,0.264-1.675,0.471-2.56,0.623c-0.885,0.154-1.785,0.26-2.694,0.314
				c-0.907,0.059-1.765,0.104-2.574,0.148c-0.023,0.172-0.031,0.311-0.031,0.42c0,0.113,0,0.201,0,0.268
				c0,0.502,0.059,0.979,0.178,1.424c0.122,0.451,0.351,0.846,0.671,1.184c0.331,0.342,0.787,0.605,1.36,0.801
				c0.58,0.201,1.343,0.299,2.285,0.299c0.415,0,0.847-0.041,1.294-0.117c0.451-0.076,0.878-0.176,1.281-0.295
				c0.405-0.117,0.763-0.24,1.083-0.355c0.317-0.123,0.543-0.236,0.674-0.346l0.26,2.59c-0.435,0.242-1.142,0.496-2.114,0.77
				C731,213.196,729.857,213.335,728.542,213.335z M725.422,203.946c1.273-0.039,2.437-0.125,3.482-0.246
				c1.051-0.121,1.957-0.33,2.725-0.623c0.766-0.297,1.363-0.693,1.787-1.195c0.431-0.5,0.642-1.16,0.642-1.971
				c0-0.195-0.037-0.406-0.11-0.623c-0.082-0.221-0.214-0.42-0.398-0.607c-0.186-0.184-0.443-0.34-0.767-0.459
				c-0.333-0.123-0.738-0.182-1.218-0.182c-0.769,0-1.484,0.168-2.147,0.494c-0.671,0.328-1.263,0.76-1.794,1.297
				c-0.519,0.535-0.97,1.158-1.339,1.869C725.912,202.415,725.625,203.163,725.422,203.946z"/>
		</g>
	</g>
</g>
<g id="Layer_2" display="none">
	<g display="inline">
		<defs>
			<filter id="Adobe_OpacityMaskFilter" filterUnits="userSpaceOnUse" x="275.279" y="9.411" width="199.406" height="199.406">
				<feFlood  style="flood-color:white;flood-opacity:1" result="back"/>
				<feBlend  in="SourceGraphic" in2="back" mode="normal"/>
			</filter>
		</defs>
		<mask maskUnits="userSpaceOnUse" x="275.279" y="9.411" width="199.406" height="199.406" id="SVGID_1_">
			<g filter="url(#Adobe_OpacityMaskFilter)">
				
					<line fill="none" stroke="#000000" stroke-width="5.3088" stroke-linecap="round" stroke-linejoin="round" stroke-miterlimit="10" x1="471.26" y1="135.093" x2="374.985" y2="135.093"/>
				
					<path fill="none" stroke="#000000" stroke-width="5.3088" stroke-linecap="round" stroke-linejoin="round" stroke-miterlimit="10" d="
					M391.218,207.479c0.834-5.182,1.285-10.508,1.285-15.939c0-55.061-44.641-99.701-99.702-99.701
					c-5.529,0-10.948,0.473-16.237,1.332"/>
				
					<path fill="none" stroke="#000000" stroke-width="5.3088" stroke-linecap="round" stroke-linejoin="round" stroke-miterlimit="10" d="
					M473.408,93.171c-5.291-0.859-10.71-1.332-16.238-1.332c-34.111,0-64.209,17.143-82.185,43.271"/>
				
					<path fill="none" stroke="#000000" stroke-width="5.3088" stroke-linecap="round" stroke-linejoin="round" stroke-miterlimit="10" d="
					M413.98,101.675c-3.485-18.373-19.611-32.266-38.995-32.266c-19.374,0-35.503,13.883-38.997,32.246"/>
			</g>
		</mask>
		<g mask="url(#SVGID_1_)">
			<path fill="#FFFFFF" d="M474.685,109.116c0,55.063-44.638,99.701-99.7,99.701c-55.064,0-99.706-44.639-99.706-99.701
				c0-55.061,44.642-99.705,99.706-99.705C430.047,9.411,474.685,54.056,474.685,109.116z"/>
		</g>
		<path fill="#FFFFFF" d="M71.167,167.231H52.317c-15.339-19.201-22.13-37.486-22.13-37.486
			c-5.443,10.416-9.287,20.828-10.568,37.486H4.563V55.114h30.752c17.938,0,28.71,7.521,28.827,23.539
			c0.143,18.199-18.958,28.311-24.293,37.861C39.848,116.515,54.492,149.313,71.167,167.231z M48.128,76.894
			c0-13.451-8.167-18.738-20.818-18.738h-7.691v87.934C27.944,116.3,48.128,99.956,48.128,76.894z"/>
		<path fill="#FFFFFF" d="M139.911,164.187v3.045H85.93V55.114h52.059v3.041h-37.003v51.574h16.499v2.883h-16.499v51.574H139.911z"
			/>
		<path fill="#FFFFFF" d="M182.838,55.114l30.114,112.117h-15.223l-5.125-19.377c-5.443,13.932-16.975,20.82-27.548,20.82
			c-11.85,0-22.42-8.328-22.42-25.15c0-25.625,16.819-65.35,25.147-88.41H182.838z M174.668,158.421
			c7.05,0,14.095-5.283,16.819-14.736l-22.426-83.609c-5.284,16.336-12.655,47.412-12.49,70
			C156.726,149.772,165.696,158.421,174.668,158.421z"/>
		<path fill="#FFFFFF" d="M236.66,164.187h38.922v3.045h-53.983V55.114h15.062V164.187z"/>
		<g>
			<path fill="#FFFFFF" d="M571.04,167.231h-18.851c-15.34-19.201-22.131-37.486-22.131-37.486
				c-5.445,10.416-9.292,20.828-10.567,37.486h-15.059V55.114h30.755c17.938,0,28.708,7.521,28.833,23.539
				c0.14,18.199-18.964,28.311-24.3,37.861C539.72,116.515,554.361,149.313,571.04,167.231z M548,76.894
				c0-13.451-8.174-18.738-20.825-18.738h-7.685v87.934C527.816,116.3,548,99.956,548,76.894z"/>
			<g>
				<g>
					<path fill="#FFFFFF" d="M583.862,167.231V55.114h15.056v112.117H583.862z"/>
					<path fill="#FFFFFF" d="M681.422,141.925c0,16.496-16.978,26.266-36.841,26.266c-9.286,0-19.22-2.08-28.51-6.568v-25.467h3.048
						c0,16.18,13.291,28.994,26.745,28.994c12.012,0,19.7-8.648,19.541-17.941c-0.161-26.906-52.217-33.793-52.217-67.268
						c0-17.779,15.858-25.789,33.479-25.789c8.969,0,18.576,2.078,26.749,6.088V85.7h-3.048c0-16.176-9.286-28.508-22.74-28.508
						c-10.091,0-18.262,8.168-18.262,20.021C629.368,101.558,681.422,113.575,681.422,141.925z"/>
					<path fill="#FFFFFF" d="M746.618,164.187v3.045h-53.98V55.114h52.054v3.041h-36.998v51.574h16.499v2.883h-16.499v51.574
						H746.618z"/>
				</g>
			</g>
		</g>
		<g>
			<path fill="#010101" d="M465.45,52.247c0.442-0.342,0.934-0.59,1.439-0.74c0.418-0.125,0.849-0.186,1.281-0.186
				c0.61-0.037,1.248,0.186,2.56,0.109c0.204-0.006,0.391-0.027,0.567-0.049c0.388-0.051,0.711-0.121,0.958-0.195h0.013
				c0.061-0.016,0.112-0.031,0.161-0.049c0.104-0.031,0.184-0.063,0.241-0.084c0.013-0.002,0.021-0.004,0.024-0.012
				c0.016,0,0.019-0.006,0.03-0.008c0.052-0.021,0.076-0.033,0.076-0.033c0.324-0.15,0.626-0.35,0.895-0.611
				c0.024-0.025,0.046-0.047,0.066-0.07c0.293-0.295,0.513-0.635,0.666-0.996c0.128-0.301,0.201-0.613,0.229-0.932
				c0,0,0.006-0.01,0.006-0.018c0.058-0.564,0.168-0.955,0.201-1.066c0-0.006,0-0.016,0-0.016c0.006-0.02,0.013-0.039,0.019-0.061
				c0-0.014,0.006-0.035,0.006-0.049c0.098-0.482,0.424-0.695,0.424-0.695c-0.481-0.404-0.948-0.404-1.278-0.313
				c-0.155,0.043-0.277,0.102-0.356,0.146c-0.006,0.006-0.016,0.012-0.021,0.012c-0.049,0.035-0.082,0.059-0.082,0.059
				c-0.027,0.02-0.056,0.043-0.076,0.061c-0.056,0.063-0.11,0.125-0.146,0.195c0,0-0.013,0.02-0.024,0.053
				c-0.04,0.068-0.113,0.201-0.152,0.236c-0.007,0.008-0.01,0.016-0.021,0.02c-0.192,0.186-0.467,0.234-0.702,0.156
				c0,0,0-0.002-0.006-0.006l0,0c-0.04-0.012-0.079-0.029-0.11-0.049c0,0,0,0-0.003-0.004c-0.247-0.109-0.5-0.191-0.76-0.246l0,0
				c-1.104-0.248-2.297-0.004-3.239,0.715c-0.119,0.092-0.229,0.189-0.339,0.291c-0.119,0.121-0.229,0.244-0.339,0.373
				c0.208-0.049,0.418-0.086,0.626-0.098c0.069-0.008,0.137-0.014,0.204-0.014c0,0,0.003,0,0.012,0c0.024,0,0.083,0,0.165,0
				c0.323,0,1.01,0.025,1.482,0.209c0.021,0.01,0.04,0.02,0.056,0.023c0.149,0.053,0.283,0.141,0.402,0.262
				c0.033,0.037,0.067,0.074,0.095,0.109c0.312,0.426,0.271,1.023-0.119,1.406c-0.024,0.021-0.043,0.043-0.073,0.063
				c-0.128,0.107-0.283,0.178-0.439,0.215c-0.082,0.033-0.351,0.086-0.68,0.139c-0.425,0.07-0.934,0.15-1.248,0.207
				c-0.021,0-0.034,0.004-0.055,0.01c-0.037,0.002-0.07,0.008-0.098,0.016h-0.01c-0.391,0.078-0.784,0.213-1.15,0.404
				c-0.375,0.193-0.729,0.443-1.04,0.746C465.666,52.001,465.553,52.124,465.45,52.247z"/>
			<path fill="#010101" d="M447.27,60.37c0.519-0.395,1.089-0.689,1.684-0.861c0.488-0.145,0.991-0.217,1.498-0.215
				c0.717-0.049,1.461,0.215,2.999,0.125c0.238-0.008,0.454-0.029,0.662-0.055c0.457-0.063,0.833-0.145,1.126-0.225
				c0,0,0.003-0.006,0.009-0.006c0.07-0.021,0.131-0.035,0.189-0.057c0.118-0.039,0.216-0.076,0.283-0.1
				c0.013-0.004,0.021-0.012,0.03-0.014c0.016-0.006,0.024-0.006,0.034-0.01c0.055-0.029,0.088-0.045,0.088-0.045
				c0.385-0.168,0.732-0.406,1.05-0.715c0.027-0.021,0.052-0.047,0.082-0.076c0.339-0.35,0.599-0.74,0.772-1.166
				c0.144-0.352,0.234-0.717,0.271-1.088v-0.025c0.073-0.662,0.201-1.115,0.237-1.248c0.004-0.01,0.004-0.016,0.004-0.021
				c0.012-0.023,0.015-0.043,0.021-0.068c0.004-0.021,0.004-0.039,0.013-0.055c0.106-0.564,0.485-0.82,0.485-0.82
				c-0.559-0.469-1.107-0.465-1.486-0.359c-0.18,0.047-0.332,0.119-0.427,0.176c0,0-0.01,0.002-0.019,0.012
				c-0.061,0.037-0.098,0.063-0.098,0.063c-0.033,0.023-0.061,0.051-0.091,0.074c-0.07,0.07-0.129,0.15-0.175,0.229
				c0,0-0.012,0.021-0.027,0.059c-0.049,0.08-0.125,0.229-0.18,0.277c-0.003,0.012-0.013,0.016-0.019,0.023
				c-0.226,0.219-0.546,0.275-0.823,0.18h-0.003h-0.01c-0.039-0.018-0.088-0.037-0.125-0.066h-0.003
				c-0.29-0.125-0.586-0.223-0.888-0.291l0,0c-1.297-0.283-2.688-0.006-3.792,0.846c-0.138,0.102-0.274,0.215-0.396,0.34
				c-0.141,0.135-0.271,0.281-0.396,0.432c0.243-0.063,0.484-0.098,0.731-0.121c0.08-0.004,0.159-0.008,0.238-0.012h0.016
				c0.027,0,0.094-0.002,0.195,0c0.372,0.004,1.174,0.039,1.732,0.252c0.024,0.008,0.046,0.018,0.067,0.025
				c0.171,0.063,0.332,0.166,0.476,0.305c0.037,0.043,0.073,0.09,0.101,0.131c0.369,0.498,0.32,1.201-0.137,1.643
				c-0.028,0.025-0.049,0.053-0.08,0.076c-0.161,0.129-0.332,0.209-0.521,0.248c-0.095,0.041-0.415,0.104-0.799,0.17
				c-0.494,0.078-1.093,0.17-1.455,0.234c-0.021,0.004-0.046,0.006-0.064,0.012c-0.043,0.006-0.082,0.016-0.113,0.018
				c0,0-0.006,0-0.015,0.006c-0.458,0.092-0.915,0.25-1.349,0.473c-0.434,0.225-0.842,0.52-1.214,0.877
				C447.517,60.087,447.392,60.229,447.27,60.37z"/>
			<path fill="#010101" d="M480.014,36.624c0.473-0.367,0.994-0.631,1.543-0.795c0.442-0.131,0.906-0.197,1.367-0.197
				c0.652-0.039,1.336,0.197,2.739,0.117c0.214-0.01,0.415-0.025,0.604-0.051c0.418-0.055,0.766-0.131,1.027-0.205h0.013
				c0.058-0.02,0.119-0.039,0.168-0.055c0.112-0.033,0.201-0.066,0.262-0.094c0.016-0.002,0.019-0.01,0.028-0.01
				c0.012-0.004,0.021-0.006,0.03-0.008c0.055-0.023,0.082-0.041,0.082-0.041c0.342-0.158,0.668-0.375,0.958-0.652
				c0.024-0.025,0.052-0.049,0.07-0.072c0.312-0.314,0.549-0.676,0.708-1.07c0.137-0.314,0.216-0.652,0.256-0.988
				c0-0.008,0-0.014,0-0.023c0.058-0.602,0.177-1.023,0.214-1.141c0-0.01,0.003-0.016,0.003-0.018
				c0.006-0.021,0.012-0.045,0.016-0.063c0-0.016,0.006-0.033,0.012-0.059c0.098-0.512,0.445-0.74,0.445-0.74
				c-0.513-0.432-1.01-0.432-1.36-0.334c-0.165,0.043-0.302,0.111-0.388,0.16c-0.003,0.008-0.012,0.008-0.019,0.012
				c-0.063,0.037-0.091,0.059-0.091,0.059c-0.028,0.023-0.056,0.047-0.08,0.068c-0.063,0.066-0.115,0.137-0.158,0.207
				c0,0-0.009,0.021-0.027,0.055c-0.043,0.078-0.119,0.217-0.162,0.25c-0.006,0.014-0.012,0.023-0.021,0.029
				c-0.207,0.195-0.497,0.248-0.753,0.162l0,0c-0.003,0-0.003,0-0.003,0c-0.046-0.018-0.086-0.035-0.122-0.063l0,0
				c-0.266-0.119-0.534-0.201-0.812-0.266l0,0c-1.181-0.26-2.462-0.008-3.469,0.771c-0.122,0.094-0.244,0.203-0.363,0.311
				c-0.128,0.127-0.244,0.26-0.36,0.395c0.227-0.053,0.442-0.088,0.672-0.107c0.073-0.006,0.143-0.01,0.213-0.01
				c0,0,0.007,0,0.013,0c0.03,0,0.091-0.006,0.183,0c0.342,0,1.071,0.029,1.584,0.227c0.021,0.006,0.039,0.018,0.058,0.023
				c0.161,0.057,0.308,0.154,0.434,0.283c0.036,0.037,0.066,0.076,0.101,0.115c0.335,0.457,0.293,1.104-0.129,1.504
				c-0.024,0.025-0.049,0.045-0.073,0.068c-0.143,0.111-0.302,0.189-0.476,0.229c-0.085,0.035-0.378,0.094-0.726,0.152
				c-0.452,0.072-1.001,0.158-1.334,0.213c-0.024,0.006-0.042,0.006-0.063,0.01c-0.037,0.01-0.067,0.012-0.101,0.018l-0.007,0.002
				c-0.427,0.09-0.842,0.229-1.235,0.438c-0.399,0.203-0.771,0.471-1.11,0.801C480.246,36.36,480.124,36.483,480.014,36.624z"/>
			<path fill="#010101" d="M450.696,44.604c0.503-0.238,1.04-0.369,1.58-0.4c0.439-0.027,0.876,0.012,1.3,0.109
				c0.607,0.1,1.184,0.467,2.492,0.691c0.202,0.039,0.382,0.063,0.564,0.082c0.394,0.039,0.732,0.041,0.985,0.027h0.01
				c0.063,0,0.122-0.004,0.174-0.01c0.106-0.008,0.198-0.018,0.259-0.033c0.013,0,0.021,0,0.027,0
				c0.01-0.004,0.016-0.004,0.031-0.004c0.052-0.012,0.082-0.016,0.082-0.016c0.351-0.07,0.692-0.201,1.019-0.395
				c0.027-0.018,0.059-0.035,0.083-0.051c0.351-0.227,0.646-0.51,0.875-0.83c0.192-0.264,0.339-0.557,0.445-0.861
				c0-0.006,0-0.012,0.007-0.021c0.183-0.539,0.378-0.896,0.436-0.998c0.01-0.008,0.01-0.014,0.016-0.02
				c0.006-0.016,0.012-0.033,0.027-0.049c0.006-0.018,0.01-0.035,0.013-0.047c0.21-0.455,0.573-0.594,0.573-0.594
				c-0.385-0.502-0.839-0.607-1.178-0.594c-0.168,0.006-0.302,0.035-0.391,0.064c-0.009,0-0.012,0.006-0.012,0.006
				c-0.07,0.021-0.104,0.035-0.104,0.035c-0.034,0.016-0.062,0.029-0.089,0.049c-0.07,0.041-0.138,0.092-0.192,0.152
				c0,0-0.009,0.021-0.033,0.043c-0.055,0.061-0.159,0.174-0.205,0.203c-0.009,0.006-0.015,0.01-0.024,0.016
				c-0.231,0.137-0.512,0.127-0.723-0.01c0,0,0,0-0.006,0l-0.006-0.006c-0.034-0.021-0.062-0.045-0.089-0.07v-0.008
				c-0.22-0.168-0.451-0.303-0.692-0.416l0,0c-1.031-0.496-2.261-0.529-3.347-0.037c-0.135,0.061-0.274,0.133-0.403,0.211
				c-0.146,0.088-0.28,0.18-0.411,0.285c0.213,0,0.427,0.014,0.631,0.045c0.07,0.01,0.138,0.023,0.205,0.031
				c0,0,0.003,0,0.009,0.008c0.03,0.004,0.082,0.02,0.171,0.041c0.312,0.074,0.979,0.254,1.403,0.543
				c0.019,0.014,0.036,0.025,0.052,0.039c0.131,0.084,0.247,0.201,0.336,0.352c0.024,0.035,0.046,0.08,0.063,0.123
				c0.211,0.488,0.031,1.074-0.433,1.355c-0.031,0.018-0.055,0.033-0.086,0.041c-0.155,0.08-0.326,0.115-0.488,0.109
				c-0.082,0.02-0.365,0.006-0.698-0.014c-0.434-0.027-0.952-0.068-1.27-0.086c-0.015-0.004-0.039-0.004-0.063-0.004
				c-0.033-0.002-0.064-0.006-0.095-0.006h-0.006c-0.412-0.008-0.821,0.035-1.227,0.137c-0.415,0.107-0.812,0.271-1.196,0.5
				C450.958,44.409,450.821,44.501,450.696,44.604z"/>
		</g>
		<g>
			<g>
				<path fill="#FFFFFF" d="M13.935,35.683v-9.438c0-0.283-0.058-0.553-0.214-0.795L4.563,9.31h5.607
					c2.166,4.084,5.217,9.896,6.495,12.568c1.144-2.59,4.384-8.592,6.55-12.568h5.205l-9.338,16.105
					c-0.107,0.174-0.195,0.305-0.195,0.781v9.486H13.935z"/>
				<path fill="#FFFFFF" d="M55.846,22.388c0,7.313-4.292,13.68-12.771,13.68c-8.103,0-12.432-6.01-12.432-13.57
					c0-7.629,4.659-13.564,12.78-13.564C51.042,8.933,55.846,14.396,55.846,22.388z M35.766,22.382c0,5.336,2.483,9.617,7.508,9.617
					c5.433,0,7.444-4.521,7.444-9.545c0-5.229-2.285-9.451-7.505-9.451C38.033,13.003,35.766,17.079,35.766,22.382z"/>
				<path fill="#FFFFFF" d="M65.587,28.089c0.644,2.824,2.63,4.172,5.946,4.172c3.411,0,4.826-1.449,4.826-3.576
					c0-2.314-1.281-3.436-6.059-4.563c-6.846-1.625-8.753-4.07-8.753-7.682c0-4.363,3.249-7.508,9.369-7.508
					c6.757,0,9.479,3.715,9.851,7.443h-5c-0.345-1.881-1.434-3.699-4.988-3.699c-2.626,0-4.161,1.121-4.161,3.225
					c0,2.051,1.251,2.871,5.635,3.904c7.618,1.818,9.183,4.695,9.183,8.299c0,4.625-3.478,7.941-10.275,7.941
					c-6.672,0-9.963-3.41-10.571-7.957H65.587z"/>
				<path fill="#FFFFFF" d="M87.51,9.31h4.942v10.537h11.69V9.31h4.942v26.373h-4.942V23.948h-11.69v11.734H87.51V9.31z"/>
				<path fill="#FFFFFF" d="M122.207,9.31v26.373h-4.952V9.31H122.207z"/>
				<path fill="#FFFFFF" d="M135.865,13.409h-8.182v-4.1h21.315v4.1h-8.173v22.273h-4.96V13.409z"/>
				<path fill="#FFFFFF" d="M154.146,9.31h4.948v10.537h11.681V9.31h4.952v26.373h-4.952V23.948h-11.681v11.734h-4.948V9.31z"/>
				<path fill="#FFFFFF" d="M188.311,28.968l-2.331,6.715h-4.875l9.104-26.373h6.184l9.506,26.373h-5.223l-2.425-6.715H188.311z
					 M197.137,24.872c-2.099-6.035-3.356-9.639-3.969-11.881h-0.04c-0.647,2.475-2.041,6.717-3.725,11.881H197.137z"/>
				<path fill="#FFFFFF" d="M207.042,18.679c1.056-3.547,1.715-8.027,1.797-10.885h4.96c-0.271,3.5-1.449,8.018-2.917,10.885
					H207.042z"/>
				<path fill="#FFFFFF" d="M222.437,28.089c0.646,2.824,2.636,4.172,5.949,4.172c3.414,0,4.83-1.449,4.83-3.576
					c0-2.314-1.281-3.436-6.056-4.563c-6.849-1.625-8.759-4.07-8.759-7.682c0-4.363,3.252-7.508,9.372-7.508
					c6.757,0,9.479,3.715,9.848,7.443h-4.994c-0.345-1.881-1.443-3.699-4.997-3.699c-2.618,0-4.149,1.121-4.149,3.225
					c0,2.051,1.242,2.871,5.631,3.904c7.615,1.818,9.18,4.695,9.18,8.299c0,4.625-3.478,7.941-10.275,7.941
					c-6.669,0-9.97-3.41-10.568-7.957H222.437z"/>
			</g>
		</g>
		<g>
			<path fill="#FFFFFF" d="M512.181,210.642c0.677,0,1.352-0.07,2.02-0.213c0.668-0.141,1.26-0.377,1.791-0.705
				c0.524-0.326,0.948-0.762,1.278-1.299c0.326-0.535,0.491-1.195,0.491-1.98c0-0.551-0.104-1.027-0.312-1.43
				c-0.207-0.406-0.488-0.768-0.854-1.082c-0.359-0.318-0.787-0.613-1.278-0.887c-0.491-0.271-1.034-0.563-1.623-0.869
				c-0.503-0.264-1.013-0.547-1.528-0.852c-0.513-0.311-0.973-0.686-1.379-1.135c-0.405-0.449-0.732-0.977-0.985-1.59
				c-0.25-0.613-0.375-1.346-0.375-2.201c0-0.984,0.192-1.891,0.57-2.725c0.385-0.828,0.952-1.545,1.696-2.146
				c0.741-0.6,1.659-1.064,2.739-1.393c1.08-0.33,2.322-0.498,3.723-0.498c0.655,0,1.281,0.051,1.873,0.148
				c0.592,0.1,1.132,0.227,1.626,0.387c0.485,0.15,0.918,0.303,1.293,0.471c0.369,0.164,0.645,0.313,0.815,0.443l-1.474,2.492
				c-0.372-0.305-0.971-0.586-1.785-0.84c-0.82-0.25-1.791-0.375-2.907-0.375c-0.702,0-1.349,0.07-1.949,0.215
				c-0.602,0.139-1.126,0.361-1.563,0.67c-0.436,0.309-0.787,0.695-1.049,1.168c-0.26,0.469-0.394,1.031-0.394,1.686
				c0,0.57,0.085,1.047,0.265,1.43c0.174,0.387,0.415,0.723,0.724,1.018c0.302,0.293,0.68,0.564,1.129,0.805
				c0.448,0.244,0.934,0.492,1.458,0.754c0.656,0.328,1.275,0.658,1.854,0.998c0.577,0.342,1.09,0.738,1.528,1.199
				c0.437,0.463,0.781,0.994,1.031,1.609c0.254,0.613,0.382,1.355,0.382,2.23c0,1.203-0.238,2.26-0.708,3.164
				c-0.47,0.912-1.113,1.664-1.938,2.266c-0.82,0.602-1.794,1.057-2.922,1.361c-1.126,0.309-2.344,0.461-3.658,0.461
				c-0.876,0-1.666-0.061-2.38-0.182c-0.708-0.121-1.33-0.27-1.87-0.439c-0.534-0.178-0.988-0.357-1.36-0.545
				s-0.656-0.354-0.852-0.508l1.479-2.592c0.412,0.285,1.071,0.609,1.965,0.971C509.665,210.462,510.805,210.642,512.181,210.642z"
				/>
			<path fill="#FFFFFF" d="M529.412,213.364c-1.642,0-2.85-0.363-3.612-1.084c-0.763-0.717-1.149-1.771-1.149-3.148
				c0-0.9,0.155-2.043,0.463-3.445l3.512-14.6l3.179-0.527l-1.274,5.285h5.809l-0.629,2.559h-5.812l-1.8,7.549
				c-0.263,1.025-0.396,1.922-0.396,2.689c0,0.723,0.201,1.24,0.592,1.557c0.396,0.318,1.052,0.477,1.971,0.477
				c0.638,0,1.26-0.104,1.867-0.311c0.616-0.211,1.086-0.4,1.415-0.572l0.226,2.59c-0.326,0.199-0.888,0.41-1.668,0.639
				C531.312,213.251,530.416,213.364,529.412,213.364z"/>
			<path fill="#FFFFFF" d="M543.488,213.335c-1.116,0-2.08-0.16-2.889-0.48c-0.814-0.316-1.492-0.752-2.032-1.313
				c-0.549-0.555-0.951-1.209-1.217-1.951c-0.263-0.74-0.394-1.529-0.394-2.361c0-1.533,0.231-3.01,0.689-4.428
				c0.461-1.42,1.113-2.682,1.968-3.779c0.857-1.092,1.892-1.961,3.118-2.604c1.226-0.648,2.614-0.971,4.17-0.971
				c0.896,0,1.663,0.115,2.31,0.344s1.175,0.543,1.577,0.938c0.402,0.393,0.701,0.846,0.903,1.363
				c0.198,0.512,0.296,1.041,0.296,1.586c0,1.033-0.189,1.9-0.562,2.613c-0.369,0.709-0.866,1.309-1.474,1.787
				c-0.613,0.477-1.33,0.855-2.15,1.115c-0.818,0.264-1.672,0.471-2.557,0.623c-0.892,0.154-1.788,0.26-2.694,0.314
				c-0.909,0.059-1.767,0.104-2.574,0.148c-0.024,0.172-0.034,0.311-0.034,0.42c0,0.113,0,0.201,0,0.268
				c0,0.502,0.059,0.979,0.184,1.424c0.118,0.451,0.345,0.846,0.668,1.184c0.332,0.342,0.781,0.605,1.363,0.801
				c0.577,0.201,1.343,0.299,2.279,0.299c0.415,0,0.845-0.041,1.297-0.117c0.445-0.076,0.875-0.176,1.281-0.295
				c0.405-0.117,0.766-0.24,1.083-0.355c0.317-0.123,0.543-0.236,0.674-0.346l0.26,2.59c-0.437,0.242-1.139,0.496-2.114,0.77
				C545.941,213.196,544.8,213.335,543.488,213.335z M540.367,203.946c1.272-0.039,2.432-0.125,3.481-0.246
				c1.053-0.121,1.959-0.33,2.725-0.623c0.763-0.297,1.363-0.693,1.784-1.195c0.431-0.5,0.644-1.16,0.644-1.971
				c0-0.195-0.042-0.406-0.115-0.623c-0.08-0.221-0.211-0.42-0.397-0.607c-0.183-0.184-0.441-0.34-0.766-0.459
				c-0.329-0.123-0.735-0.182-1.217-0.182c-0.769,0-1.482,0.168-2.151,0.494c-0.668,0.328-1.26,0.76-1.787,1.297
				c-0.525,0.535-0.971,1.158-1.343,1.869C540.852,202.415,540.565,203.163,540.367,203.946z"/>
			<path fill="#FFFFFF" d="M563.108,195.415c1.07,0,1.998,0.152,2.77,0.459c0.778,0.311,1.419,0.727,1.925,1.264
				c0.501,0.535,0.879,1.172,1.129,1.906c0.251,0.73,0.374,1.533,0.374,2.41c0,1.512-0.225,2.971-0.685,4.379
				c-0.461,1.41-1.169,2.67-2.114,3.758c-0.952,1.094-2.16,1.973-3.609,2.623c-1.458,0.66-3.182,0.986-5.171,0.986
				c-0.238,0-0.504-0.012-0.787-0.033c-0.28-0.021-0.537-0.055-0.757-0.094l-1.409,5.904h-3.048l5.379-22.408
				c0.918-0.375,1.919-0.66,3.002-0.857C561.189,195.513,562.189,195.415,563.108,195.415z M556.808,210.509
				c0.216,0.049,0.454,0.07,0.704,0.084c0.25,0.012,0.497,0.014,0.741,0.014c1.245,0,2.361-0.238,3.347-0.719
				c0.979-0.479,1.818-1.131,2.508-1.957c0.692-0.822,1.221-1.756,1.593-2.816c0.372-1.064,0.562-2.172,0.562-3.33
				c0-0.484-0.058-0.957-0.168-1.412c-0.113-0.461-0.312-0.867-0.607-1.213c-0.299-0.354-0.692-0.629-1.195-0.842
				c-0.504-0.201-1.153-0.311-1.938-0.311c-0.546,0-1.053,0.047-1.513,0.146c-0.458,0.102-0.84,0.201-1.145,0.283L556.808,210.509z"
				/>
			<path fill="#FFFFFF" d="M581.711,212.903h-3.051l4.102-17.059h3.053L581.711,212.903z M585.256,192.759
				c-0.504,0-0.922-0.15-1.264-0.457c-0.338-0.307-0.509-0.736-0.509-1.279c0-0.699,0.217-1.256,0.654-1.66s0.932-0.605,1.478-0.605
				c0.504,0,0.931,0.154,1.285,0.475c0.345,0.314,0.52,0.762,0.52,1.328c0,0.656-0.23,1.189-0.688,1.59
				C586.272,192.558,585.781,192.759,585.256,192.759z"/>
			<path fill="#FFFFFF" d="M589.881,212.903h-3.051l3.933-16.406c1.01-0.303,2.097-0.551,3.267-0.738
				c1.172-0.184,2.222-0.277,3.14-0.277c0.978,0,1.827,0.135,2.538,0.41c0.714,0.275,1.288,0.643,1.724,1.115
				c0.434,0.471,0.763,1.035,0.968,1.709c0.21,0.668,0.311,1.393,0.311,2.178c0,0.508-0.043,1.035-0.131,1.594
				c-0.086,0.559-0.192,1.125-0.326,1.691l-2.101,8.725h-3.053l1.938-8.066c0.152-0.617,0.302-1.236,0.445-1.871
				c0.141-0.637,0.214-1.236,0.214-1.807c0-0.875-0.241-1.602-0.727-2.186c-0.48-0.574-1.376-0.867-2.685-0.867
				c-0.557,0-1.089,0.031-1.61,0.102c-0.528,0.064-0.968,0.152-1.313,0.258L589.881,212.903z"/>
			<path fill="#FFFFFF" d="M610.747,213.364c-1.637,0-2.84-0.363-3.607-1.084c-0.763-0.717-1.15-1.771-1.15-3.148
				c0-0.9,0.156-2.043,0.461-3.445l3.515-14.6l3.185-0.527l-1.282,5.285h5.806l-0.621,2.559h-5.807l-1.805,7.549
				c-0.266,1.025-0.396,1.922-0.396,2.689c0,0.723,0.198,1.24,0.595,1.557c0.394,0.318,1.046,0.477,1.965,0.477
				c0.638,0,1.26-0.104,1.87-0.311c0.613-0.211,1.086-0.4,1.412-0.572l0.229,2.59c-0.327,0.199-0.888,0.41-1.668,0.639
				C612.652,213.251,611.758,213.364,610.747,213.364z"/>
			<path fill="#FFFFFF" d="M624.041,213.335c-1.794,0-3.2-0.531-4.216-1.598c-1.017-1.059-1.525-2.52-1.525-4.375
				c0-1.273,0.177-2.605,0.54-4.008c0.359-1.395,0.934-2.691,1.721-3.865c0.787-1.184,1.806-2.154,3.057-2.92
				c1.248-0.771,2.755-1.154,4.527-1.154c1.788,0,3.192,0.531,4.208,1.592c1.017,1.063,1.53,2.523,1.53,4.381
				c0,1.271-0.18,2.602-0.543,4.004c-0.358,1.396-0.934,2.691-1.721,3.869c-0.79,1.186-1.803,2.156-3.051,2.924
				C627.317,212.946,625.813,213.335,624.041,213.335z M624.565,210.737c0.979,0,1.864-0.279,2.643-0.85
				c0.777-0.572,1.431-1.295,1.968-2.184c0.537-0.885,0.944-1.865,1.228-2.936c0.284-1.068,0.426-2.109,0.426-3.121
				c0-1.113-0.241-2-0.72-2.656c-0.483-0.656-1.313-0.984-2.493-0.984c-0.986,0-1.863,0.285-2.639,0.855
				c-0.777,0.566-1.434,1.291-1.971,2.184c-0.537,0.883-0.948,1.863-1.229,2.936c-0.287,1.072-0.43,2.107-0.43,3.113
				c0,1.121,0.244,2.006,0.72,2.66C622.555,210.411,623.384,210.737,624.565,210.737z"/>
			<path fill="#FFFFFF" d="M643.461,212.903l5.446-22.73H662.2l-0.622,2.65h-10.143l-1.67,6.959h8.987l-0.621,2.59h-8.957
				l-2.53,10.531H643.461z"/>
			<path fill="#FFFFFF" d="M666.564,213.335c-0.963,0-1.77-0.146-2.412-0.432c-0.646-0.285-1.171-0.666-1.575-1.145
				c-0.407-0.484-0.694-1.051-0.868-1.707c-0.174-0.654-0.263-1.355-0.263-2.1c0-0.568,0.049-1.133,0.143-1.689
				c0.104-0.561,0.213-1.123,0.349-1.691l2.1-8.727h3.054l-1.936,8.07c-0.108,0.506-0.252,1.092-0.429,1.771
				c-0.174,0.678-0.26,1.357-0.26,2.033c0,0.396,0.037,0.773,0.113,1.135c0.076,0.359,0.215,0.678,0.427,0.951
				c0.204,0.273,0.486,0.488,0.836,0.656c0.348,0.164,0.787,0.246,1.312,0.246c0.94,0,1.77-0.203,2.478-0.605
				c0.709-0.406,1.303-0.885,1.791-1.426c0.019-0.355,0.052-0.711,0.09-1.086c0.047-0.371,0.125-0.777,0.239-1.213l2.523-10.533
				h3.051l-2.594,10.795c-0.106,0.502-0.201,0.992-0.274,1.457c-0.084,0.469-0.115,0.963-0.115,1.465
				c0,0.498,0.042,1.006,0.125,1.508c0.091,0.5,0.24,1.049,0.463,1.641l-2.693,0.389c-0.106-0.238-0.214-0.508-0.32-0.818
				c-0.117-0.305-0.204-0.633-0.266-0.986c-0.242,0.223-0.529,0.455-0.857,0.693c-0.324,0.24-0.701,0.457-1.129,0.652
				c-0.427,0.195-0.896,0.361-1.409,0.5C667.743,213.267,667.178,213.335,666.564,213.335z"/>
			<path fill="#FFFFFF" d="M684.214,213.364c-1.639,0-2.841-0.363-3.609-1.084c-0.766-0.717-1.144-1.771-1.144-3.148
				c0-0.9,0.147-2.043,0.457-3.445l3.515-14.6l3.179-0.527l-1.281,5.285h5.811l-0.629,2.559h-5.806l-1.801,7.549
				c-0.263,1.025-0.397,1.922-0.397,2.689c0,0.723,0.198,1.24,0.596,1.557c0.39,0.318,1.043,0.477,1.964,0.477
				c0.635,0,1.256-0.104,1.87-0.311c0.613-0.211,1.087-0.4,1.41-0.572l0.231,2.59c-0.329,0.199-0.888,0.41-1.672,0.639
				C686.117,213.251,685.221,213.364,684.214,213.364z"/>
			<path fill="#FFFFFF" d="M697.373,213.335c-0.962,0-1.764-0.146-2.41-0.432c-0.648-0.285-1.172-0.666-1.574-1.145
				c-0.406-0.484-0.696-1.051-0.871-1.707c-0.173-0.654-0.265-1.355-0.265-2.1c0-0.568,0.053-1.133,0.156-1.689
				c0.091-0.561,0.21-1.123,0.339-1.691l2.102-8.727h3.051l-1.938,8.07c-0.106,0.506-0.25,1.092-0.427,1.771
				c-0.179,0.678-0.266,1.357-0.266,2.033c0,0.396,0.043,0.773,0.119,1.135c0.076,0.359,0.22,0.678,0.424,0.951
				c0.211,0.273,0.488,0.488,0.836,0.656c0.357,0.164,0.793,0.246,1.318,0.246c0.937,0,1.763-0.203,2.477-0.605
				c0.708-0.406,1.306-0.885,1.783-1.426c0.026-0.355,0.054-0.711,0.103-1.086c0.04-0.371,0.119-0.777,0.229-1.213l2.526-10.533
				h3.051l-2.593,10.795c-0.108,0.502-0.202,0.992-0.278,1.457c-0.073,0.469-0.109,0.963-0.109,1.465
				c0,0.498,0.038,1.006,0.125,1.508c0.088,0.5,0.244,1.049,0.461,1.641l-2.691,0.389c-0.106-0.238-0.22-0.508-0.329-0.818
				c-0.106-0.305-0.192-0.633-0.26-0.986c-0.244,0.223-0.527,0.455-0.851,0.693c-0.333,0.24-0.71,0.457-1.135,0.652
				c-0.432,0.195-0.898,0.361-1.41,0.5C698.546,213.267,697.984,213.335,697.373,213.335z"/>
			<path fill="#FFFFFF" d="M718.965,195.481c0.263,0,0.559,0.012,0.885,0.031c0.329,0.025,0.646,0.063,0.967,0.117
				c0.317,0.057,0.61,0.111,0.87,0.162c0.266,0.055,0.457,0.117,0.59,0.184l-0.886,2.654c-0.441-0.17-0.943-0.303-1.509-0.391
				c-0.569-0.09-1.115-0.133-1.643-0.133c-0.458,0-0.912,0.031-1.358,0.102c-0.448,0.064-0.839,0.152-1.165,0.258l-3.48,14.438
				h-3.051l3.938-16.406c0.872-0.303,1.814-0.551,2.821-0.738C716.949,195.575,717.961,195.481,718.965,195.481z"/>
			<path fill="#FFFFFF" d="M728.542,213.335c-1.113,0-2.077-0.16-2.886-0.48c-0.807-0.316-1.485-0.752-2.03-1.313
				c-0.548-0.555-0.953-1.209-1.216-1.951c-0.266-0.74-0.396-1.529-0.396-2.361c0-1.533,0.231-3.01,0.689-4.428
				c0.459-1.42,1.116-2.682,1.977-3.779c0.852-1.092,1.886-1.961,3.112-2.604c1.224-0.648,2.614-0.971,4.167-0.971
				c0.895,0,1.666,0.115,2.313,0.344c0.644,0.229,1.173,0.543,1.577,0.938c0.4,0.393,0.702,0.846,0.897,1.363
				c0.201,0.512,0.302,1.041,0.302,1.586c0,1.033-0.189,1.9-0.564,2.613c-0.369,0.709-0.86,1.309-1.475,1.787
				c-0.612,0.477-1.326,0.855-2.146,1.115c-0.822,0.264-1.675,0.471-2.56,0.623c-0.885,0.154-1.785,0.26-2.694,0.314
				c-0.907,0.059-1.765,0.104-2.574,0.148c-0.023,0.172-0.031,0.311-0.031,0.42c0,0.113,0,0.201,0,0.268
				c0,0.502,0.059,0.979,0.178,1.424c0.122,0.451,0.351,0.846,0.671,1.184c0.331,0.342,0.787,0.605,1.36,0.801
				c0.58,0.201,1.343,0.299,2.285,0.299c0.415,0,0.847-0.041,1.294-0.117c0.451-0.076,0.878-0.176,1.281-0.295
				c0.405-0.117,0.763-0.24,1.083-0.355c0.317-0.123,0.543-0.236,0.674-0.346l0.26,2.59c-0.435,0.242-1.142,0.496-2.114,0.77
				C731,213.196,729.857,213.335,728.542,213.335z M725.422,203.946c1.273-0.039,2.437-0.125,3.482-0.246
				c1.051-0.121,1.957-0.33,2.725-0.623c0.766-0.297,1.363-0.693,1.787-1.195c0.431-0.5,0.642-1.16,0.642-1.971
				c0-0.195-0.037-0.406-0.11-0.623c-0.082-0.221-0.214-0.42-0.398-0.607c-0.186-0.184-0.443-0.34-0.767-0.459
				c-0.333-0.123-0.738-0.182-1.218-0.182c-0.769,0-1.484,0.168-2.147,0.494c-0.671,0.328-1.263,0.76-1.794,1.297
				c-0.519,0.535-0.97,1.158-1.339,1.869C725.912,202.415,725.625,203.163,725.422,203.946z"/>
		</g>
	</g>
</g>
</svg>
